<?xml version="1.0" encoding="utf-8"?><!DOCTYPE svg PUBLIC "-//W3C//DTD SVG 1.1//EN" "http://www.w3.org/Graphics/SVG/1.1/DTD/svg11.dtd"><svg version="1.1" baseProfile="full" xmlns="http://www.w3.org/2000/svg" xmlns:xlink="http://www.w3.org/1999/xlink" xmlns:ev="http://www.w3.org/2001/xml-events"   height="39px"   width="30px" ><path fill="rgb( 107, 227, 154 )" d="M0.23800000000006,38.885 L0.23800000000006,0.97399999999993 L29.088,0.97399999999993 L29.088,38.885 L0.23800000000006,38.885 ZM26.212,3.82799999999997 L3.11400000000003,3.82799999999997 L3.11400000000003,36.0309999999999 L26.212,36.0309999999999 L26.212,3.82799999999997 ZM21.523,25.461 L7.80200000000002,25.461 L7.80200000000002,22.607 L21.523,22.607 L21.523,25.461 ZM21.523,31.567 L7.80200000000002,31.567 L7.80200000000002,28.712 L21.523,28.712 L21.523,31.567 ZM16.101,16.9870000000001 L13.225,16.9870000000001 L13.225,14.021 L10.237,14.021 L10.237,11.1669999999999 L13.225,11.1669999999999 L13.225,8.20000000000005 L16.101,8.20000000000005 L16.101,11.1669999999999 L19.0890000000001,11.1669999999999 L19.0890000000001,14.021 L16.101,14.021 L16.101,16.9870000000001 Z "/></svg>