<?xml version="1.0" encoding="utf-8"?><!DOCTYPE svg PUBLIC "-//W3C//DTD SVG 1.1//EN" "http://www.w3.org/Graphics/SVG/1.1/DTD/svg11.dtd"><svg version="1.1" baseProfile="full" xmlns="http://www.w3.org/2000/svg" xmlns:xlink="http://www.w3.org/1999/xlink" xmlns:ev="http://www.w3.org/2001/xml-events"   height="21px"   width="20px" ><path fill="rgb( 107, 227, 154 )" d="M18.26,15.965 L18.26,10.92 L11.289,10.92 L11.289,7.63600000000002 L17.471,7.63600000000002 L17.471,0 L3.52800000000002,0 L3.52800000000002,7.63600000000002 L9.71000000000004,7.63600000000002 L9.71000000000004,10.92 L2.73900000000003,10.92 L2.73900000000003,15.965 L0.99900000000002,15.965 L0.99900000000002,20.999 L6.05700000000002,20.999 L6.05700000000002,15.965 L4.31799999999998,15.965 L4.31799999999998,12.501 L9.71000000000004,12.501 L9.71000000000004,15.965 L7.971,15.965 L7.971,20.999 L13.028,20.999 L13.028,15.965 L11.289,15.965 L11.289,12.501 L16.682,12.501 L16.682,15.965 L14.942,15.965 L14.942,20.999 L20,20.999 L20,15.965 L18.26,15.965 ZM5.10699999999997,1.58100000000002 L15.893,1.58100000000002 L15.893,6.05500000000001 L5.10699999999997,6.05500000000001 L5.10699999999997,1.58100000000002 ZM4.47900000000004,19.418 L2.57799999999997,19.418 L2.57799999999997,17.546 L4.47900000000004,17.546 L4.47900000000004,19.418 ZM11.45,19.418 L9.54899999999998,19.418 L9.54899999999998,17.546 L11.45,17.546 L11.45,19.418 ZM18.422,19.418 L16.52,19.418 L16.52,17.546 L18.422,17.546 L18.422,19.418 Z "/></svg>