<?xml version="1.0" encoding="utf-8"?><!DOCTYPE svg PUBLIC "-//W3C//DTD SVG 1.1//EN" "http://www.w3.org/Graphics/SVG/1.1/DTD/svg11.dtd"><svg version="1.1" baseProfile="full" xmlns="http://www.w3.org/2000/svg" xmlns:xlink="http://www.w3.org/1999/xlink" xmlns:ev="http://www.w3.org/2001/xml-events"   height="21px"   width="18px" ><path fill="rgb( 107, 227, 154 )" d="M0.99900000000002,20.999 L0.99900000000002,0 L17.0039999999999,0 L17.0039999999999,20.999 L0.99900000000002,20.999 ZM15.4079999999999,1.58100000000002 L2.59400000000005,1.58100000000002 L2.59400000000005,19.418 L15.4079999999999,19.418 L15.4079999999999,1.58100000000002 ZM12.807,13.832 L5.19499999999994,13.832 L5.19499999999994,12.251 L12.807,12.251 L12.807,13.832 ZM12.807,17.213 L5.19499999999994,17.213 L5.19499999999994,15.6319999999999 L12.807,15.6319999999999 L12.807,17.213 ZM9.00099999999998,10.6799999999999 C6.90300000000002,10.6799999999999 5.19599999999991,8.98800000000006 5.19599999999991,6.90899999999999 C5.19599999999991,4.83000000000004 6.90300000000002,3.13900000000001 9.00099999999998,3.13900000000001 C11.0989999999999,3.13900000000001 12.806,4.83000000000004 12.806,6.90899999999999 C12.806,8.98800000000006 11.0989999999999,10.6799999999999 9.00099999999998,10.6799999999999 ZM9.00099999999998,4.72000000000003 C7.7829999999999,4.72000000000003 6.79199999999992,5.702 6.79199999999992,6.90899999999999 C6.79199999999992,8.11699999999996 7.7829999999999,9.09900000000005 9.00099999999998,9.09900000000005 L9.00099999999998,6.90899999999999 L11.21,6.90899999999999 C11.21,5.702 10.2190000000001,4.72000000000003 9.00099999999998,4.72000000000003 Z "/></svg>