<?xml version="1.0" encoding="utf-8"?><!DOCTYPE svg PUBLIC "-//W3C//DTD SVG 1.1//EN" "http://www.w3.org/Graphics/SVG/1.1/DTD/svg11.dtd"><svg version="1.1" baseProfile="full" xmlns="http://www.w3.org/2000/svg" xmlns:xlink="http://www.w3.org/1999/xlink" xmlns:ev="http://www.w3.org/2001/xml-events"   height="22px"   width="20px" ><path fill="rgb( 107, 227, 154 )" d="M19.9960000000001,8.93099999999998 L19.9960000000001,13.1 L18.5160000000001,13.1 L18.5160000000001,21.999 L2.63400000000001,21.999 L2.63400000000001,20.637 L0.79899999999998,20.637 L0.79899999999998,19.055 L2.63400000000001,19.055 L2.63400000000001,16.468 L0.79899999999998,16.468 L0.79899999999998,14.886 L2.63400000000001,14.886 L2.63400000000001,12.3 L0.79899999999998,12.3 L0.79899999999998,10.718 L2.63400000000001,10.718 L2.63400000000001,8.13099999999997 L0.79899999999998,8.13099999999997 L0.79899999999998,6.54899999999998 L2.63400000000001,6.54899999999998 L2.63400000000001,3.96300000000002 L0.79899999999998,3.96300000000002 L0.79899999999998,2.38099999999997 L2.63400000000001,2.38099999999997 L2.63400000000001,0.98700000000002 L18.5160000000001,0.98700000000002 L18.5160000000001,3.17200000000003 L19.9960000000001,3.17200000000003 L19.9960000000001,7.33999999999997 L18.5160000000001,7.33999999999997 L18.5160000000001,8.93099999999998 L19.9960000000001,8.93099999999998 ZM16.933,2.56900000000002 L4.2170000000001,2.56900000000002 L4.2170000000001,20.417 L16.933,20.417 L16.933,2.56900000000002 ZM14.124,17.853 L7.02500000000009,17.853 L7.02500000000009,14.671 L14.124,14.671 L14.124,17.853 Z "/></svg>