<?xml version="1.0" encoding="utf-8"?><!DOCTYPE svg PUBLIC "-//W3C//DTD SVG 1.1//EN" "http://www.w3.org/Graphics/SVG/1.1/DTD/svg11.dtd"><svg version="1.1" baseProfile="full" xmlns="http://www.w3.org/2000/svg" xmlns:xlink="http://www.w3.org/1999/xlink" xmlns:ev="http://www.w3.org/2001/xml-events"   height="18px"   width="23px" ><path fill="rgb( 216, 66, 68 )" d="M21.8020000000001,17.325 L21.8009999999999,17.326 C21.607,17.652 21.1790000000001,18 20.5590000000002,18 L2.43299999999999,18 C1.9079999999999,18 1.44399999999996,17.749 1.19200000000001,17.328 C0.9340000000002,16.895 0.93299999999999,16.377 1.1909999999998,15.944 L10.2539999999999,0.69400000000002 C10.5120000000002,0.25999999999999 10.9760000000001,0 11.4960000000001,0 C12.0140000000001,0 12.4780000000001,0.26100000000002 12.7379999999998,0.69799999999998 L21.8009999999999,15.942 C22.058,16.375 22.0590000000002,16.892 21.8020000000001,17.325 ZM11.4949999999999,2.12599999999998 L3.10699999999997,16.24 L19.886,16.24 L11.4949999999999,2.12599999999998 ZM12.402,7.06999999999999 L12.402,11.78 L10.5900000000001,11.78 L10.5900000000001,7.06999999999999 L12.402,7.06999999999999 ZM12.402,14.408 L10.5900000000001,14.408 L10.5900000000001,12.705 L12.402,12.705 L12.402,14.408 Z "/></svg>