<?xml version="1.0" encoding="utf-8"?>
<!-- Generator: Adobe Illustrator 19.0.0, SVG Export Plug-In . SVG Version: 6.00 Build 0)  -->
<svg version="1.1" id="Layer_1" xmlns="http://www.w3.org/2000/svg" xmlns:xlink="http://www.w3.org/1999/xlink" x="0px" y="0px"
	 width="195px" height="166.9px" viewBox="0 0 195 166.9" style="enable-background:new 0 0 195 166.9;" xml:space="preserve">
<style type="text/css">
	.st0{fill:#FFFFFF;}
</style>
<g id="XMLID_150_">
	<g id="XMLID_151_">
		<g id="XMLID_187_">
			<path id="XMLID_188_" class="st0" d="M0,110.9h8.1c9.8,0,15.1,5.3,15.1,13.9c0,8.9-4.9,14.2-15.1,14.2H0V110.9z M8.3,136.1
				c7.6,0,11.4-4.3,11.4-11.4c0-6.8-4-11-11.4-11H3.4v22.4H8.3z"/>
			<path id="XMLID_191_" class="st0" d="M37.4,117.6c5.9,0,8.6,4,8.6,9.3c0,0.5-0.1,1.3-0.2,1.8H30.7c0.1,5.1,2.4,8.1,6.9,8.1
				c2.3,0,4.4-0.8,6.1-2l1.5,2.3c-2.1,1.5-4.9,2.5-7.8,2.5c-6.4,0-10.1-4.2-10.1-11.2C27.4,121.8,31.6,117.6,37.4,117.6z
				 M30.8,126.5h11.9c0-3.5-1.4-6.3-5.3-6.3C34.1,120.2,31.5,122.6,30.8,126.5z"/>
			<path id="XMLID_194_" class="st0" d="M51.2,118.1h3.1l0.2,2.8c1.8-1.9,4.2-3.3,7.2-3.3c4.7,0,6.6,2.9,6.6,7.2V139h-3.3v-14.2
				c0-2.7-1.1-4.5-4-4.5c-2.6,0-4.7,1.2-6.4,3.3V139h-3.3V118.1z"/>
			<path id="XMLID_196_" class="st0" d="M75.8,120.7h-3.7v-2.6h3.7V112h3.3v6.1h6v2.6h-6v12.7c0,2.1,0.8,3.3,2.7,3.3
				c1.1,0,2.2-0.4,3.1-1l1.3,2.2c-1.2,0.9-3,1.6-4.8,1.6c-3.9,0-5.7-2.1-5.7-6V120.7z"/>
		</g>
		<g id="XMLID_171_">
			<path id="XMLID_172_" class="st0" d="M105.6,110.4c3.9,0,7.3,1.2,10.2,3.6l-3.3,4.2c-2-1.6-4.1-2.6-6.8-2.6
				c-5.2,0-8.7,3.7-8.7,9.3c0,5.8,3.3,9.6,8.7,9.6c2.8,0,5.1-1.1,7-2.9l3.6,3.9c-3,2.8-6.5,4.2-10.9,4.2c-8.6,0-14.5-6.2-14.5-14.7
				C90.9,116.5,97,110.4,105.6,110.4z"/>
			<path id="XMLID_174_" class="st0" d="M120.3,108.6h5.9V139h-5.9V108.6z"/>
			<path id="XMLID_176_" class="st0" d="M131.2,108.8h5.9v5.1h-5.9V108.8z M131.2,117.7h5.9V139h-5.9V117.7z"/>
			<path id="XMLID_179_" class="st0" d="M142.1,117.4h5.6l0.3,2.5c1.6-1.7,3.9-3,6.6-3c4.8,0,6.9,3,6.9,7.8V139h-5.9v-14.5
				c0-1.9-0.8-3.3-2.8-3.3c-1.8,0-3.4,0.9-4.7,2.5V139h-5.9V117.4z"/>
			<path id="XMLID_181_" class="st0" d="M166.2,108.8h5.9v5.1h-5.9V108.8z M166.2,117.7h5.9V139h-5.9V117.7z"/>
			<path id="XMLID_184_" class="st0" d="M187.1,116.9c2.6,0,5.3,0.8,7.6,2.7l-3,3.8c-1.2-1-2.7-1.7-4.5-1.7c-2.9,0-5.2,2.3-5.2,6.4
				c0,4.3,2.3,6.7,5.2,6.7c1.9,0,3.2-0.7,4.5-1.8l3.2,3.4c-2.4,2.1-4.9,3.1-7.9,3.1c-6.3,0-11-4.2-11-11.4
				C176.1,121.2,180.8,116.9,187.1,116.9z"/>
		</g>
	</g>
	<g id="XMLID_143_">
		<path id="XMLID_144_" class="st0" d="M44.9,144.6h4.7l4.5,6.4l4.6-6.4h4.7v17.2H59v-10.7l-4.8,6.5l-4.8-6.5v10.7h-4.5V144.6z"/>
		<path id="XMLID_146_" class="st0" d="M73.3,153.5v-0.7c0-0.8-0.5-1.2-1.4-1.2c-1.2,0-2.4,0.4-4.3,1.4l-1.5-3.2
			c2.1-1.1,4.2-1.7,6.1-1.7c4.2,0,5.8,2,5.8,5v5c0,0.5,0.3,0.8,0.9,0.8v3c-2.9,0-4.1-0.3-5-1.7c-1.2,1.3-2.3,2-4.2,2
			c-2.3,0-3.9-1.4-3.9-3.6C65.6,156,67.5,154.1,73.3,153.5z M71.4,158.9c0.8,0,1.4-0.4,1.9-0.9v-2.2c-1.8,0.1-3.1,0.7-3.1,2
			C70.2,158.5,70.7,158.9,71.4,158.9z"/>
		<path id="XMLID_155_" class="st0" d="M80.5,148.3h4.4l0.2,1.4c0.9-0.9,2.3-1.8,3.9-1.8c3,0,4.2,1.8,4.2,4.9v8.8h-4.6v-9
			c0-0.9-0.4-1.5-1.3-1.5c-0.8,0-1.5,0.4-2.1,1.2v9.2h-4.6V148.3z"/>
		<path id="XMLID_159_" class="st0" d="M102.7,153.5v-0.7c0-0.8-0.5-1.2-1.4-1.2c-1.2,0-2.4,0.4-4.3,1.4l-1.5-3.2
			c2.1-1.1,4.2-1.7,6.1-1.7c4.2,0,5.8,2,5.8,5v5c0,0.5,0.3,0.8,0.9,0.8v3c-2.9,0-4.1-0.3-5-1.7c-1.2,1.3-2.3,2-4.2,2
			c-2.3,0-3.9-1.4-3.9-3.6C95.1,156,97,154.1,102.7,153.5z M100.9,158.9c0.8,0,1.4-0.4,1.9-0.9v-2.2c-1.8,0.1-3.1,0.7-3.1,2
			C99.6,158.5,100.1,158.9,100.9,158.9z"/>
		<path id="XMLID_162_" class="st0" d="M110.7,160.8c-0.5-0.6-0.8-1.3-0.8-1.9c0-0.9,0.5-1.8,1.4-2.3c-1.2-0.8-1.9-2.1-1.9-3.7
			c0-2.9,2.6-4.9,6-4.9c1.5,0,2.9,0.4,3.9,1.1c0.9-0.6,2.2-1.1,3.9-1.1v2.7c-0.9,0-1.6,0.1-2.3,0.2c0.2,0.5,0.4,1.2,0.4,1.8
			c0,3.1-2.9,4.9-5.9,4.9c-0.7,0-1.3-0.1-1.9-0.2c-0.2,0.1-0.4,0.4-0.4,0.6c0,0.5,0.6,0.7,3.1,0.8c4.3,0.1,6.6,1.3,6.6,4
			c0,2.6-2.2,4-7.1,4c-4.2,0-6.9-1.1-6.9-3.5C108.9,162.2,109.5,161.4,110.7,160.8z M113.5,162.2c-0.3,0.3-0.5,0.6-0.5,1.1
			c0,0.7,0.7,1,2.7,1c2.2,0,3-0.3,3-0.9c0-0.6-0.5-0.9-2.8-0.9C115,162.5,114.2,162.4,113.5,162.2z M117.1,152.9c0-1.2-0.6-2-1.6-2
			c-1,0-1.6,0.8-1.6,2c0,1.2,0.7,2,1.6,2C116.4,154.9,117.1,154.1,117.1,152.9z"/>
		<path id="XMLID_166_" class="st0" d="M130.5,148c3.9,0,6.3,2.4,6.3,6.1c0,0.7-0.1,1.4-0.2,2h-8.4c0.2,1.7,1.1,2.4,2.6,2.4
			c1.3,0,2.5-0.4,3.6-1.1l1.9,2.8c-1.8,1.3-3.8,1.9-5.9,1.9c-3.8,0-6.9-2.6-6.9-7.1C123.6,150.6,126.8,148,130.5,148z M128.3,153.7
			h4.2c0-1.4-0.5-2.5-1.9-2.5C129.5,151.2,128.6,152,128.3,153.7z"/>
		<path id="XMLID_169_" class="st0" d="M138.7,148.3h4.3l0.3,1.9c1-1.9,2.3-2.3,3.7-2.3c0.5,0,1,0.1,1.5,0.2l-0.5,4.2
			c-0.4-0.1-1.1-0.3-1.9-0.3c-1.3,0-2.1,0.7-2.8,2v7.7h-4.6V148.3z"/>
	</g>
	<path id="XMLID_154_" class="st0" d="M121,7.1l21.5,24L108.2,80l-24-17.2L90.7,74l-6.9,6L50,30.5L70.7,7.4l15.5,8.7L70,29.5
		L121,7.1 M69.5,0l-3.1,3.5L45.6,26.6l-3,3.4l2.6,3.8l33.8,49.5l3.7,5.4l4.9-4.3l6.9-6l0.7-0.6l9.6,6.9l4.8,3.4l3.4-4.8l34.3-48.8
		l2.7-3.8l-3.1-3.5l-21.5-24l-2.8-3.1l-3.9,1.7L92.8,13.1L89,11L73.5,2.3L69.5,0L69.5,0z"/>
</g>
</svg>
