<?xml version="1.0" encoding="utf-8"?><!DOCTYPE svg PUBLIC "-//W3C//DTD SVG 1.1//EN" "http://www.w3.org/Graphics/SVG/1.1/DTD/svg11.dtd"><svg version="1.1" baseProfile="full" xmlns="http://www.w3.org/2000/svg" xmlns:xlink="http://www.w3.org/1999/xlink" xmlns:ev="http://www.w3.org/2001/xml-events"   height="22px"   width="22px" ><path fill="rgb( 0, 222, 153 )" d="M13.587,10.789 L10.783,5.893 L13.587,0.99700000000001 L19.195,0.99700000000001 L22,5.893 L19.195,10.789 L13.587,10.789 ZM18.285,2.58699999999999 L14.498,2.58699999999999 L12.604,5.893 L14.498,9.19900000000001 L18.285,9.19900000000001 L20.179,5.893 L18.285,2.58699999999999 ZM9.41199999999998,16.316 L3.80399999999997,16.316 L0.99900000000002,11.42 L3.80399999999997,6.524 L9.41199999999998,6.524 L12.217,11.42 L9.41199999999998,16.316 ZM8.50099999999998,8.114 L4.714,8.114 L2.82100000000003,11.42 L4.714,14.726 L8.50099999999998,14.726 L10.395,11.42 L8.50099999999998,8.114 ZM19.195,12.208 L22,17.104 L19.195,22 L13.587,22 L10.783,17.104 L13.587,12.208 L19.195,12.208 ZM14.498,20.41 L18.285,20.41 L20.179,17.104 L18.285,13.798 L14.498,13.798 L12.604,17.104 L14.498,20.41 Z "/></svg>