<?xml version="1.0" encoding="utf-8"?><!DOCTYPE svg PUBLIC "-//W3C//DTD SVG 1.1//EN" "http://www.w3.org/Graphics/SVG/1.1/DTD/svg11.dtd"><svg version="1.1" baseProfile="full" xmlns="http://www.w3.org/2000/svg" xmlns:xlink="http://www.w3.org/1999/xlink" xmlns:ev="http://www.w3.org/2001/xml-events"   height="21px"   width="23px" ><path fill="rgb( 107, 227, 154 )" d="M22.001,12.427 L19.1320000000001,13.651 L20.316,16.527 L17.5630000000001,19.282 L14.6669999999999,18.126 L13.4739999999999,20.998 L9.57099999999991,20.998 L8.346,18.1319999999999 L5.46900000000005,19.317 L2.71399999999994,16.562 L2.99900000000002,15.8390000000001 L3.87100000000009,13.668 L0.99900000000002,12.475 L0.99900000000002,8.57500000000005 L3.86500000000001,7.34799999999996 L2.68000000000006,4.46699999999998 L5.43900000000008,1.71400000000006 L8.32899999999995,2.875 L9.52600000000007,0.00400000000002 L13.4280000000001,0.00400000000002 L14.6500000000001,2.86900000000003 L17.53,1.68299999999999 L20.2860000000001,4.44399999999996 L19.126,7.33100000000002 L22.001,8.529 L22.001,12.427 ZM20.4300000000001,9.57500000000005 L17.732,8.45000000000005 L17.6120000000001,8.13199999999995 C17.5730000000001,8.02700000000004 17.53,7.923 17.4860000000001,7.82000000000005 L17.3579999999999,7.52099999999996 L18.443,4.81600000000003 L17.1600000000001,3.53300000000002 L14.47,4.63999999999999 L14.1610000000001,4.5 C14.056,4.452 13.9490000000001,4.40999999999997 13.8399999999999,4.36800000000005 L13.5309999999999,4.24800000000005 L12.3900000000001,1.57299999999998 L10.575,1.57299999999998 L9.46000000000004,4.24099999999999 L9.14300000000003,4.36000000000001 C9.029,4.404 8.91499999999996,4.447 8.80400000000009,4.49699999999996 L8.49800000000005,4.63499999999999 L5.81500000000005,3.55600000000004 L4.53099999999995,4.84100000000001 L5.62300000000005,7.49599999999998 L5.4849999999999,7.80399999999997 C5.43299999999999,7.92100000000005 5.38699999999994,8.03999999999996 5.34099999999989,8.15999999999997 L5.22399999999993,8.47400000000005 L2.56899999999996,9.60900000000004 L2.56899999999996,11.425 L5.221,12.53 L5.3420000000001,12.843 C5.3889999999999,12.965 5.4369999999999,13.087 5.49000000000001,13.206 L5.62699999999995,13.51 L4.55300000000011,16.183 L5.83799999999997,17.468 L8.49199999999996,16.375 L8.7940000000001,16.502 C8.90900000000011,16.551 9.02399999999989,16.595 9.14100000000008,16.6369999999999 L9.46499999999992,16.752 L10.6089999999999,19.429 L12.425,19.429 L13.54,16.745 L13.856,16.624 C13.9680000000001,16.582 14.077,16.5359999999999 14.1849999999999,16.489 L14.4839999999999,16.362 L17.183,17.442 L18.4680000000001,16.157 L17.3579999999999,13.4690000000001 L17.49,13.164 C17.5340000000001,13.063 17.5740000000001,12.9589999999999 17.6130000000001,12.856 L17.731,12.543 L20.4300000000001,11.3920000000001 L20.4300000000001,9.57500000000005 ZM11.5,14.564 C9.25700000000006,14.564 7.43299999999999,12.741 7.43299999999999,10.501 C7.43299999999999,8.26099999999997 9.25700000000006,6.43899999999996 11.5,6.43899999999996 C13.7429999999999,6.43899999999996 15.567,8.26099999999997 15.567,10.501 C15.567,12.741 13.7429999999999,14.564 11.5,14.564 ZM11.5,8.00800000000004 C10.123,8.00800000000004 9.00399999999991,9.12599999999998 9.00399999999991,10.501 C9.00399999999991,11.876 10.123,12.995 11.5,12.995 C12.876,12.995 13.9960000000001,11.876 13.9960000000001,10.501 C13.9960000000001,9.12599999999998 12.876,8.00800000000004 11.5,8.00800000000004 Z "/></svg>