<?xml version="1.0" encoding="utf-8"?><!DOCTYPE svg PUBLIC "-//W3C//DTD SVG 1.1//EN" "http://www.w3.org/Graphics/SVG/1.1/DTD/svg11.dtd"><svg version="1.1" baseProfile="full" xmlns="http://www.w3.org/2000/svg" xmlns:xlink="http://www.w3.org/1999/xlink" xmlns:ev="http://www.w3.org/2001/xml-events"   height="21px"   width="16px" ><path fill="rgb( 100, 220, 154 )" d="M0,20.999 L0,0 L16,0 L16,20.999 L0,20.999 ZM14.4179999999999,1.58100000000002 L1.58200000000011,1.58100000000002 L1.58200000000011,19.418 L14.4179999999999,19.418 L14.4179999999999,1.58100000000002 ZM12.5540000000001,10.009 L3.42399999999998,10.009 L3.42399999999998,3.40800000000002 L12.5540000000001,3.40800000000002 L12.5540000000001,10.009 ZM5.0150000000001,13.893 L3.43200000000002,13.893 L3.43200000000002,11.998 L5.0150000000001,11.998 L5.0150000000001,13.893 ZM5.0150000000001,17.633 L3.43200000000002,17.633 L3.43200000000002,15.7380000000001 L5.0150000000001,15.7380000000001 L5.0150000000001,17.633 ZM8.78899999999999,13.893 L7.20700000000011,13.893 L7.20700000000011,11.998 L8.78899999999999,11.998 L8.78899999999999,13.893 ZM8.78899999999999,17.633 L7.20700000000011,17.633 L7.20700000000011,15.7380000000001 L8.78899999999999,15.7380000000001 L8.78899999999999,17.633 ZM12.5630000000001,13.893 L10.981,13.893 L10.981,11.998 L12.5630000000001,11.998 L12.5630000000001,13.893 ZM12.5630000000001,17.633 L10.981,17.633 L10.981,15.7380000000001 L12.5630000000001,15.7380000000001 L12.5630000000001,17.633 Z "/></svg>