<?xml version="1.0" encoding="utf-8"?>
<!-- Generator: Adobe Illustrator 19.0.0, SVG Export Plug-In . SVG Version: 6.00 Build 0)  -->
<svg version="1.1" id="Layer_1" xmlns="http://www.w3.org/2000/svg" xmlns:xlink="http://www.w3.org/1999/xlink" x="0px" y="0px"
	 width="340.2px" height="86.7px" viewBox="0 0 340.2 86.7" style="enable-background:new 0 0 340.2 86.7;" xml:space="preserve">
<style type="text/css">
	.st0{fill:#FFFFFF;}
</style>
<g id="XMLID_845_">
	<path id="XMLID_943_" class="st0" d="M78.9,7.2l20.2,20.1L66,77.6L46.2,60.1l3.7,9l-9.1,8.6L7.5,27.2l20.4-20l20.5,10.3l-6.8,8.7
		L78.9,7.2 M53.4,13.3L46.8,10L26.7,0L0,26.7l40,60l13.1-12.4l13.6,12.4l39.9-60L80.1,0L53.4,13.3z"/>
	<g id="XMLID_873_">
		<path id="XMLID_891_" class="st0" d="M126.7,55.1h4l5.5,7.8l5.5-7.8h3.9v18.2h-3.8V60.8l-5.7,7.9l-5.7-7.9v12.6h-3.8V55.1z"/>
		<path id="XMLID_888_" class="st0" d="M156.5,65v-1.2c0-1-0.6-1.7-1.9-1.7s-2.7,0.5-4.5,1.4l-1.4-2.8c1.9-0.9,4.1-1.6,6-1.6
			c4,0,5.6,2,5.6,4.8v5.8c0,0.8,0.4,1.1,1.1,1.1v2.6c-2.6,0-3.7-0.4-4.5-1.7c-1.2,1.3-2.5,2-4.4,2c-2.5,0-4.2-1.5-4.2-3.7
			C148.4,66.9,151.3,65.3,156.5,65z M153.8,70.9c1.2,0,2.1-0.5,2.7-1.2v-2.7c-2.2,0.1-4.3,0.7-4.3,2.5
			C152.2,70.4,152.9,70.9,153.8,70.9z"/>
		<path id="XMLID_886_" class="st0" d="M163.7,59.4h3.6l0.2,1.6c1-1.1,2.5-2,4.2-2c3.1,0,4.5,1.9,4.5,5.1v9.3h-3.8V64
			c0-1.3-0.5-2.1-1.8-2.1c-1.2,0-2.2,0.6-3,1.6v9.8h-3.8V59.4z"/>
		<path id="XMLID_883_" class="st0" d="M186.8,65v-1.2c0-1-0.6-1.7-1.9-1.7s-2.7,0.5-4.5,1.4l-1.4-2.8c1.9-0.9,4.1-1.6,6-1.6
			c4,0,5.6,2,5.6,4.8v5.8c0,0.8,0.4,1.1,1.1,1.1v2.6c-2.6,0-3.7-0.4-4.5-1.7c-1.2,1.3-2.5,2-4.4,2c-2.5,0-4.2-1.5-4.2-3.7
			C178.7,66.9,181.6,65.3,186.8,65z M184.1,70.9c1.2,0,2.1-0.5,2.7-1.2v-2.7c-2.2,0.1-4.3,0.7-4.3,2.5
			C182.5,70.4,183.2,70.9,184.1,70.9z"/>
		<path id="XMLID_879_" class="st0" d="M194.9,72.3c-0.6-0.5-0.9-1.2-0.9-1.9c0-1,0.6-1.8,1.5-2.3c-1.2-0.9-2-2.2-2-3.9
			c0-3.1,2.6-5.1,6-5.1c1.6,0,2.9,0.4,4,1.2c0.9-0.7,2.1-1.2,3.9-1.2v2.5c-1,0-1.8,0.1-2.5,0.3c0.4,0.7,0.6,1.5,0.6,2.3
			c0,3.3-2.9,5.1-6,5.1c-0.7,0-1.5-0.1-2.1-0.3c-0.4,0.2-0.5,0.4-0.5,0.8c0,0.7,0.9,0.9,3.8,1c4.1,0.2,6.4,1.3,6.4,3.9
			c0,2.6-2.3,4.1-7.1,4.1c-4.4,0-7.1-1.2-7.1-3.7C192.8,73.9,193.6,73,194.9,72.3z M197.4,73.5c-0.6,0.4-1,0.9-1,1.5
			c0,1,1,1.5,3.4,1.5c2.6,0,3.7-0.4,3.7-1.3c0-0.9-0.8-1.2-3.4-1.3C199,73.8,198.1,73.7,197.4,73.5z M201.9,64.2
			c0-1.6-1-2.6-2.4-2.6c-1.4,0-2.4,1-2.4,2.6c0,1.6,1,2.6,2.4,2.6C200.9,66.8,201.9,65.7,201.9,64.2z"/>
		<path id="XMLID_876_" class="st0" d="M215.2,59c4,0,6.2,2.6,6.2,6.4c0,0.5-0.1,1.3-0.1,1.7h-9.2c0.2,2.4,1.3,3.5,3.4,3.5
			c1.4,0,2.7-0.5,3.9-1.2l1.6,2.4c-1.7,1.2-3.7,1.8-5.8,1.8c-4.1,0-7-2.7-7-7.4C208.2,61.8,211.3,59,215.2,59z M212.2,64.9h5.7
			c0-1.8-0.7-3.1-2.5-3.1C213.7,61.8,212.5,62.9,212.2,64.9z"/>
		<path id="XMLID_874_" class="st0" d="M224,59.4h3.5l0.3,2.2c1.1-1.9,2.4-2.6,4-2.6c0.7,0,1.3,0.1,1.7,0.3l-0.5,3.5
			c-0.5-0.2-1.1-0.3-1.9-0.3c-1.4,0-2.4,0.9-3.3,2.5v8.4H224V59.4z"/>
	</g>
	<g id="XMLID_846_">
		<g id="XMLID_862_">
			<path id="XMLID_870_" class="st0" d="M126.8,15.8h8.9c10.7,0,16.5,5.8,16.5,15.2c0,9.7-5.4,15.6-16.5,15.6h-8.9V15.8z
				 M135.9,43.4c8.3,0,12.5-4.7,12.5-12.4c0-7.4-4.4-12.1-12.5-12.1h-5.4v24.5H135.9z"/>
			<path id="XMLID_867_" class="st0" d="M167.7,23.2c6.4,0,9.4,4.4,9.4,10.2c0,0.6-0.1,1.5-0.2,1.9h-16.5c0.1,5.6,2.6,8.8,7.5,8.8
				c2.5,0,4.8-0.9,6.7-2.2l1.6,2.5c-2.3,1.7-5.4,2.7-8.5,2.7c-7,0-11-4.6-11-12.3C156.7,27.8,161.4,23.2,167.7,23.2z M160.5,32.9h13
				c0-3.8-1.5-6.9-5.8-6.9C164,26,161.2,28.6,160.5,32.9z"/>
			<path id="XMLID_865_" class="st0" d="M182.8,23.7h3.4l0.2,3.1c1.9-2,4.6-3.7,7.8-3.7c5.2,0,7.2,3.2,7.2,7.9v15.5h-3.7V31.1
				c0-3-1.2-4.9-4.4-4.9c-2.8,0-5.2,1.4-7,3.7v16.8h-3.7V23.7z"/>
			<path id="XMLID_863_" class="st0" d="M209.8,26.6h-4v-2.8h4V17h3.7v6.7h6.6v2.8h-6.6v13.9c0,2.3,0.8,3.7,3,3.7
				c1.2,0,2.4-0.4,3.4-1.1l1.4,2.4c-1.4,1-3.3,1.7-5.2,1.7c-4.3,0-6.3-2.2-6.3-6.6V26.6z"/>
		</g>
		<g id="XMLID_847_">
			<path id="XMLID_860_" class="st0" d="M242.4,15.2c4.3,0,8,1.4,11.2,3.9l-3.6,4.6c-2.2-1.7-4.5-2.9-7.4-2.9c-5.7,0-9.5,4-9.5,10.1
				c0,6.3,3.7,10.5,9.5,10.5c3.1,0,5.6-1.2,7.6-3.2l4,4.2c-3.3,3.1-7.1,4.6-11.9,4.6c-9.4,0-15.9-6.7-15.9-16.1
				C226.3,21.9,233,15.2,242.4,15.2z"/>
			<path id="XMLID_858_" class="st0" d="M258.4,13.3h6.5v33.3h-6.5V13.3z"/>
			<path id="XMLID_855_" class="st0" d="M270.4,13.6h6.5v5.6h-6.5V13.6z M270.4,23.3h6.5v23.3h-6.5V23.3z"/>
			<path id="XMLID_853_" class="st0" d="M282.3,22.9h6.1l0.3,2.7c1.7-1.8,4.2-3.3,7.2-3.3c5.3,0,7.5,3.3,7.5,8.6v15.6h-6.5V30.8
				c0-2.1-0.9-3.6-3.1-3.6c-2,0-3.7,1-5.1,2.8v16.6h-6.4V22.9z"/>
			<path id="XMLID_850_" class="st0" d="M308.7,13.6h6.5v5.6h-6.5V13.6z M308.7,23.3h6.5v23.3h-6.5V23.3z"/>
			<path id="XMLID_848_" class="st0" d="M331.5,22.4c2.9,0,5.8,0.9,8.4,2.9l-3.3,4.2c-1.4-1.1-3-1.9-4.9-1.9c-3.1,0-5.7,2.5-5.7,7
				c0,4.7,2.5,7.3,5.7,7.3c2.1,0,3.5-0.7,5-1.9l3.5,3.7c-2.6,2.3-5.3,3.4-8.7,3.4c-6.9,0-12-4.6-12-12.5
				C319.5,27,324.6,22.4,331.5,22.4z"/>
		</g>
	</g>
</g>
</svg>
